<mxfile host="app.diagrams.net" modified="2022-06-11T09:28:43.151Z" agent="5.0 (Windows NT 10.0; Win64; x64) AppleWebKit/537.36 (KHTML, like Gecko) Chrome/102.0.0.0 Safari/537.36" etag="YauKl7pLOxEI29hX5k8y" version="19.0.3" type="github">
  <diagram id="98kkUTzndiBbhaGtW08h" name="Page-1">
    <mxGraphModel dx="782" dy="471" grid="1" gridSize="10" guides="1" tooltips="1" connect="1" arrows="1" fold="1" page="1" pageScale="1" pageWidth="827" pageHeight="1169" math="0" shadow="0">
      <root>
        <mxCell id="0" />
        <mxCell id="1" parent="0" />
        <mxCell id="tk5sPLedH6yxBTcmL2M--1" value="Visiteur" style="shape=umlActor;verticalLabelPosition=bottom;verticalAlign=top;html=1;outlineConnect=0;" vertex="1" parent="1">
          <mxGeometry x="100" y="400" width="30" height="60" as="geometry" />
        </mxCell>
        <mxCell id="tk5sPLedH6yxBTcmL2M--2" value="Propriètaire" style="shape=umlActor;verticalLabelPosition=bottom;verticalAlign=top;html=1;outlineConnect=0;" vertex="1" parent="1">
          <mxGeometry x="100" y="610" width="30" height="60" as="geometry" />
        </mxCell>
        <mxCell id="tk5sPLedH6yxBTcmL2M--3" value="Admin" style="shape=umlActor;verticalLabelPosition=bottom;verticalAlign=top;html=1;outlineConnect=0;" vertex="1" parent="1">
          <mxGeometry x="90" y="1130" width="30" height="60" as="geometry" />
        </mxCell>
        <mxCell id="tk5sPLedH6yxBTcmL2M--4" value="S&#39;inscrire et créer l&#39;association" style="ellipse;whiteSpace=wrap;html=1;" vertex="1" parent="1">
          <mxGeometry x="260" y="260" width="120" height="80" as="geometry" />
        </mxCell>
        <mxCell id="tk5sPLedH6yxBTcmL2M--6" value="Consulter les annonces des associations" style="ellipse;whiteSpace=wrap;html=1;" vertex="1" parent="1">
          <mxGeometry x="260" y="480" width="120" height="80" as="geometry" />
        </mxCell>
        <mxCell id="tk5sPLedH6yxBTcmL2M--8" value="Consulter ses annonces" style="ellipse;whiteSpace=wrap;html=1;" vertex="1" parent="1">
          <mxGeometry x="260" y="585" width="120" height="80" as="geometry" />
        </mxCell>
        <mxCell id="tk5sPLedH6yxBTcmL2M--9" value="Consulter son profil" style="ellipse;whiteSpace=wrap;html=1;" vertex="1" parent="1">
          <mxGeometry x="260" y="730" width="120" height="80" as="geometry" />
        </mxCell>
        <mxCell id="tk5sPLedH6yxBTcmL2M--16" value="Rechercher association" style="ellipse;whiteSpace=wrap;html=1;" vertex="1" parent="1">
          <mxGeometry x="260" y="380" width="120" height="80" as="geometry" />
        </mxCell>
        <mxCell id="tk5sPLedH6yxBTcmL2M--19" value="" style="endArrow=none;html=1;rounded=0;entryX=0;entryY=0.5;entryDx=0;entryDy=0;" edge="1" parent="1" target="tk5sPLedH6yxBTcmL2M--6">
          <mxGeometry width="50" height="50" relative="1" as="geometry">
            <mxPoint x="130" y="640" as="sourcePoint" />
            <mxPoint x="210" y="550" as="targetPoint" />
          </mxGeometry>
        </mxCell>
        <mxCell id="tk5sPLedH6yxBTcmL2M--20" value="" style="endArrow=none;html=1;rounded=0;entryX=0;entryY=0.5;entryDx=0;entryDy=0;" edge="1" parent="1" target="tk5sPLedH6yxBTcmL2M--8">
          <mxGeometry width="50" height="50" relative="1" as="geometry">
            <mxPoint x="130" y="640" as="sourcePoint" />
            <mxPoint x="270" y="530" as="targetPoint" />
          </mxGeometry>
        </mxCell>
        <mxCell id="tk5sPLedH6yxBTcmL2M--21" value="" style="endArrow=none;html=1;rounded=0;entryX=0;entryY=0.5;entryDx=0;entryDy=0;" edge="1" parent="1" target="tk5sPLedH6yxBTcmL2M--9">
          <mxGeometry width="50" height="50" relative="1" as="geometry">
            <mxPoint x="130" y="640" as="sourcePoint" />
            <mxPoint x="280" y="540" as="targetPoint" />
          </mxGeometry>
        </mxCell>
        <mxCell id="tk5sPLedH6yxBTcmL2M--23" value="" style="endArrow=none;html=1;rounded=0;entryX=0;entryY=0.5;entryDx=0;entryDy=0;" edge="1" parent="1" target="tk5sPLedH6yxBTcmL2M--16">
          <mxGeometry width="50" height="50" relative="1" as="geometry">
            <mxPoint x="130" y="430" as="sourcePoint" />
            <mxPoint x="250" y="290" as="targetPoint" />
          </mxGeometry>
        </mxCell>
        <mxCell id="tk5sPLedH6yxBTcmL2M--24" value="" style="endArrow=none;html=1;rounded=0;entryX=0;entryY=0.5;entryDx=0;entryDy=0;" edge="1" parent="1" target="tk5sPLedH6yxBTcmL2M--4">
          <mxGeometry width="50" height="50" relative="1" as="geometry">
            <mxPoint x="130" y="430" as="sourcePoint" />
            <mxPoint x="220" y="440" as="targetPoint" />
          </mxGeometry>
        </mxCell>
        <mxCell id="tk5sPLedH6yxBTcmL2M--27" value="" style="endArrow=none;html=1;rounded=0;entryX=0;entryY=0.5;entryDx=0;entryDy=0;" edge="1" parent="1" target="tk5sPLedH6yxBTcmL2M--6">
          <mxGeometry width="50" height="50" relative="1" as="geometry">
            <mxPoint x="130" y="430" as="sourcePoint" />
            <mxPoint x="270" y="300" as="targetPoint" />
          </mxGeometry>
        </mxCell>
        <mxCell id="tk5sPLedH6yxBTcmL2M--28" value="&lt;div&gt;Editer profil association&lt;/div&gt;" style="ellipse;whiteSpace=wrap;html=1;" vertex="1" parent="1">
          <mxGeometry x="507" y="840" width="120" height="80" as="geometry" />
        </mxCell>
        <mxCell id="tk5sPLedH6yxBTcmL2M--29" value="" style="endArrow=none;dashed=1;html=1;rounded=0;entryX=0;entryY=0.5;entryDx=0;entryDy=0;exitX=0.808;exitY=0.917;exitDx=0;exitDy=0;startArrow=none;startFill=1;exitPerimeter=0;" edge="1" parent="1" source="tk5sPLedH6yxBTcmL2M--37" target="tk5sPLedH6yxBTcmL2M--28">
          <mxGeometry width="50" height="50" relative="1" as="geometry">
            <mxPoint x="360" y="670" as="sourcePoint" />
            <mxPoint x="410" y="620" as="targetPoint" />
          </mxGeometry>
        </mxCell>
        <mxCell id="tk5sPLedH6yxBTcmL2M--30" value="Création des annonces" style="ellipse;whiteSpace=wrap;html=1;" vertex="1" parent="1">
          <mxGeometry x="510" y="730" width="120" height="80" as="geometry" />
        </mxCell>
        <mxCell id="tk5sPLedH6yxBTcmL2M--33" value="" style="endArrow=none;dashed=1;html=1;rounded=0;entryX=0;entryY=0.5;entryDx=0;entryDy=0;exitX=0.675;exitY=1.05;exitDx=0;exitDy=0;startArrow=none;startFill=1;exitPerimeter=0;" edge="1" parent="1" source="tk5sPLedH6yxBTcmL2M--34" target="tk5sPLedH6yxBTcmL2M--30">
          <mxGeometry width="50" height="50" relative="1" as="geometry">
            <mxPoint x="374" y="670" as="sourcePoint" />
            <mxPoint x="414" y="620" as="targetPoint" />
          </mxGeometry>
        </mxCell>
        <mxCell id="tk5sPLedH6yxBTcmL2M--40" value="Modifier une annonce" style="ellipse;whiteSpace=wrap;html=1;" vertex="1" parent="1">
          <mxGeometry x="510" y="635" width="120" height="80" as="geometry" />
        </mxCell>
        <mxCell id="tk5sPLedH6yxBTcmL2M--41" value="" style="endArrow=none;dashed=1;html=1;rounded=0;entryX=0;entryY=0.5;entryDx=0;entryDy=0;exitX=1;exitY=0.5;exitDx=0;exitDy=0;startArrow=none;startFill=1;" edge="1" parent="1" target="tk5sPLedH6yxBTcmL2M--40" source="tk5sPLedH6yxBTcmL2M--42">
          <mxGeometry width="50" height="50" relative="1" as="geometry">
            <mxPoint x="380" y="590" as="sourcePoint" />
            <mxPoint x="414" y="535" as="targetPoint" />
          </mxGeometry>
        </mxCell>
        <mxCell id="tk5sPLedH6yxBTcmL2M--43" value="Supprimer une annonce" style="ellipse;whiteSpace=wrap;html=1;" vertex="1" parent="1">
          <mxGeometry x="510" y="520" width="120" height="80" as="geometry" />
        </mxCell>
        <mxCell id="tk5sPLedH6yxBTcmL2M--44" value="" style="endArrow=none;dashed=1;html=1;rounded=0;entryX=0;entryY=0.5;entryDx=0;entryDy=0;exitX=0.517;exitY=0.05;exitDx=0;exitDy=0;startArrow=none;startFill=1;exitPerimeter=0;" edge="1" parent="1" target="tk5sPLedH6yxBTcmL2M--43" source="tk5sPLedH6yxBTcmL2M--45">
          <mxGeometry width="50" height="50" relative="1" as="geometry">
            <mxPoint x="390" y="545" as="sourcePoint" />
            <mxPoint x="424" y="490" as="targetPoint" />
          </mxGeometry>
        </mxCell>
        <mxCell id="tk5sPLedH6yxBTcmL2M--45" value="&amp;lt;&amp;lt;extend&amp;gt;&amp;gt;" style="text;html=1;align=center;verticalAlign=middle;resizable=0;points=[];autosize=1;strokeColor=none;fillColor=none;" vertex="1" parent="1">
          <mxGeometry x="400" y="590" width="80" height="20" as="geometry" />
        </mxCell>
        <mxCell id="tk5sPLedH6yxBTcmL2M--46" value="" style="endArrow=none;dashed=1;html=1;rounded=0;exitX=1;exitY=0.5;exitDx=0;exitDy=0;startArrow=classic;startFill=1;" edge="1" parent="1" source="tk5sPLedH6yxBTcmL2M--8" target="tk5sPLedH6yxBTcmL2M--45">
          <mxGeometry width="50" height="50" relative="1" as="geometry">
            <mxPoint x="380" y="625" as="sourcePoint" />
            <mxPoint x="480" y="510" as="targetPoint" />
          </mxGeometry>
        </mxCell>
        <mxCell id="tk5sPLedH6yxBTcmL2M--42" value="&amp;lt;&amp;lt;extend&amp;gt;&amp;gt;" style="text;html=1;align=center;verticalAlign=middle;resizable=0;points=[];autosize=1;strokeColor=none;fillColor=none;" vertex="1" parent="1">
          <mxGeometry x="407" y="635" width="80" height="20" as="geometry" />
        </mxCell>
        <mxCell id="tk5sPLedH6yxBTcmL2M--47" value="" style="endArrow=none;dashed=1;html=1;rounded=0;entryX=0;entryY=0.5;entryDx=0;entryDy=0;exitX=1;exitY=0.5;exitDx=0;exitDy=0;startArrow=classic;startFill=1;" edge="1" parent="1" source="tk5sPLedH6yxBTcmL2M--8" target="tk5sPLedH6yxBTcmL2M--42">
          <mxGeometry width="50" height="50" relative="1" as="geometry">
            <mxPoint x="380" y="625" as="sourcePoint" />
            <mxPoint x="480" y="610" as="targetPoint" />
          </mxGeometry>
        </mxCell>
        <mxCell id="tk5sPLedH6yxBTcmL2M--34" value="&amp;lt;&amp;lt;extend&amp;gt;&amp;gt;" style="text;html=1;align=center;verticalAlign=middle;resizable=0;points=[];autosize=1;strokeColor=none;fillColor=none;" vertex="1" parent="1">
          <mxGeometry x="414" y="700" width="80" height="20" as="geometry" />
        </mxCell>
        <mxCell id="tk5sPLedH6yxBTcmL2M--48" value="" style="endArrow=none;dashed=1;html=1;rounded=0;entryX=0.175;entryY=-0.017;entryDx=0;entryDy=0;exitX=1;exitY=0.5;exitDx=0;exitDy=0;startArrow=classic;startFill=1;entryPerimeter=0;" edge="1" parent="1" source="tk5sPLedH6yxBTcmL2M--8" target="tk5sPLedH6yxBTcmL2M--34">
          <mxGeometry width="50" height="50" relative="1" as="geometry">
            <mxPoint x="380" y="625" as="sourcePoint" />
            <mxPoint x="510" y="705" as="targetPoint" />
          </mxGeometry>
        </mxCell>
        <mxCell id="tk5sPLedH6yxBTcmL2M--37" value="&amp;lt;&amp;lt;extend&amp;gt;&amp;gt;" style="text;html=1;align=center;verticalAlign=middle;resizable=0;points=[];autosize=1;strokeColor=none;fillColor=none;" vertex="1" parent="1">
          <mxGeometry x="400" y="810" width="80" height="20" as="geometry" />
        </mxCell>
        <mxCell id="tk5sPLedH6yxBTcmL2M--49" value="" style="endArrow=none;dashed=1;html=1;rounded=0;entryX=0.175;entryY=0.25;entryDx=0;entryDy=0;exitX=1;exitY=0.5;exitDx=0;exitDy=0;startArrow=classic;startFill=1;entryPerimeter=0;" edge="1" parent="1" source="tk5sPLedH6yxBTcmL2M--9" target="tk5sPLedH6yxBTcmL2M--37">
          <mxGeometry width="50" height="50" relative="1" as="geometry">
            <mxPoint x="380" y="770" as="sourcePoint" />
            <mxPoint x="480" y="820" as="targetPoint" />
          </mxGeometry>
        </mxCell>
        <mxCell id="tk5sPLedH6yxBTcmL2M--50" value="&lt;div&gt;Consulter une association&lt;/div&gt;" style="ellipse;whiteSpace=wrap;html=1;" vertex="1" parent="1">
          <mxGeometry x="494" y="330" width="120" height="80" as="geometry" />
        </mxCell>
        <mxCell id="tk5sPLedH6yxBTcmL2M--53" value="" style="endArrow=none;dashed=1;html=1;rounded=0;exitX=1;exitY=0.5;exitDx=0;exitDy=0;startArrow=classic;startFill=1;entryX=0;entryY=0.5;entryDx=0;entryDy=0;" edge="1" parent="1" target="tk5sPLedH6yxBTcmL2M--50" source="tk5sPLedH6yxBTcmL2M--16">
          <mxGeometry width="50" height="50" relative="1" as="geometry">
            <mxPoint x="380" y="220" as="sourcePoint" />
            <mxPoint x="439.3599999999999" y="387" as="targetPoint" />
          </mxGeometry>
        </mxCell>
        <mxCell id="tk5sPLedH6yxBTcmL2M--54" value="&lt;div&gt;Contacter l&#39;association&lt;/div&gt;" style="ellipse;whiteSpace=wrap;html=1;" vertex="1" parent="1">
          <mxGeometry x="690" y="330" width="120" height="80" as="geometry" />
        </mxCell>
        <mxCell id="tk5sPLedH6yxBTcmL2M--57" value="" style="endArrow=none;dashed=1;html=1;rounded=0;entryX=0;entryY=0.5;entryDx=0;entryDy=0;exitX=1;exitY=0.5;exitDx=0;exitDy=0;startArrow=classic;startFill=1;" edge="1" parent="1" target="tk5sPLedH6yxBTcmL2M--54" source="tk5sPLedH6yxBTcmL2M--50">
          <mxGeometry width="50" height="50" relative="1" as="geometry">
            <mxPoint x="470" y="340" as="sourcePoint" />
            <mxPoint x="654" y="275" as="targetPoint" />
          </mxGeometry>
        </mxCell>
        <mxCell id="tk5sPLedH6yxBTcmL2M--58" value="&amp;lt;&amp;lt;extend&amp;gt;&amp;gt;" style="text;html=1;align=center;verticalAlign=middle;resizable=0;points=[];autosize=1;strokeColor=none;fillColor=none;" vertex="1" parent="1">
          <mxGeometry x="389" y="386" width="80" height="20" as="geometry" />
        </mxCell>
        <mxCell id="tk5sPLedH6yxBTcmL2M--59" value="&amp;lt;&amp;lt;extend&amp;gt;&amp;gt;" style="text;html=1;align=center;verticalAlign=middle;resizable=0;points=[];autosize=1;strokeColor=none;fillColor=none;" vertex="1" parent="1">
          <mxGeometry x="614" y="350" width="80" height="20" as="geometry" />
        </mxCell>
        <mxCell id="tk5sPLedH6yxBTcmL2M--61" value="" style="endArrow=none;html=1;rounded=0;entryX=0;entryY=0.5;entryDx=0;entryDy=0;" edge="1" parent="1" target="tk5sPLedH6yxBTcmL2M--16">
          <mxGeometry width="50" height="50" relative="1" as="geometry">
            <mxPoint x="130" y="640" as="sourcePoint" />
            <mxPoint x="270" y="530" as="targetPoint" />
          </mxGeometry>
        </mxCell>
        <mxCell id="tk5sPLedH6yxBTcmL2M--62" value="" style="endArrow=none;dashed=1;html=1;rounded=0;exitX=1;exitY=0.5;exitDx=0;exitDy=0;startArrow=classic;startFill=1;entryX=0;entryY=0.5;entryDx=0;entryDy=0;" edge="1" parent="1" source="tk5sPLedH6yxBTcmL2M--6" target="tk5sPLedH6yxBTcmL2M--50">
          <mxGeometry width="50" height="50" relative="1" as="geometry">
            <mxPoint x="390" y="430" as="sourcePoint" />
            <mxPoint x="504" y="380" as="targetPoint" />
          </mxGeometry>
        </mxCell>
        <mxCell id="tk5sPLedH6yxBTcmL2M--63" value="&amp;lt;&amp;lt;extend&amp;gt;&amp;gt;" style="text;html=1;align=center;verticalAlign=middle;resizable=0;points=[];autosize=1;strokeColor=none;fillColor=none;" vertex="1" parent="1">
          <mxGeometry x="407" y="430" width="80" height="20" as="geometry" />
        </mxCell>
        <mxCell id="tk5sPLedH6yxBTcmL2M--65" value="&lt;div&gt;Aimer une annonce&lt;/div&gt;" style="ellipse;whiteSpace=wrap;html=1;" vertex="1" parent="1">
          <mxGeometry x="510" y="430" width="120" height="80" as="geometry" />
        </mxCell>
        <mxCell id="tk5sPLedH6yxBTcmL2M--66" value="" style="endArrow=none;dashed=1;html=1;rounded=0;entryX=0;entryY=0.5;entryDx=0;entryDy=0;exitX=1;exitY=0.5;exitDx=0;exitDy=0;startArrow=classic;startFill=1;" edge="1" parent="1" target="tk5sPLedH6yxBTcmL2M--65" source="tk5sPLedH6yxBTcmL2M--6">
          <mxGeometry width="50" height="50" relative="1" as="geometry">
            <mxPoint x="614" y="460" as="sourcePoint" />
            <mxPoint x="654" y="365" as="targetPoint" />
          </mxGeometry>
        </mxCell>
        <mxCell id="tk5sPLedH6yxBTcmL2M--70" value="&amp;lt;&amp;lt;extend&amp;gt;&amp;gt;" style="text;html=1;align=center;verticalAlign=middle;resizable=0;points=[];autosize=1;strokeColor=none;fillColor=none;" vertex="1" parent="1">
          <mxGeometry x="417" y="480" width="80" height="20" as="geometry" />
        </mxCell>
        <mxCell id="tk5sPLedH6yxBTcmL2M--71" value="Création des posts" style="ellipse;whiteSpace=wrap;html=1;" vertex="1" parent="1">
          <mxGeometry x="260" y="900" width="120" height="80" as="geometry" />
        </mxCell>
        <mxCell id="tk5sPLedH6yxBTcmL2M--73" value="" style="endArrow=none;html=1;rounded=0;entryX=0;entryY=0.5;entryDx=0;entryDy=0;" edge="1" parent="1" target="tk5sPLedH6yxBTcmL2M--71">
          <mxGeometry width="50" height="50" relative="1" as="geometry">
            <mxPoint x="130" y="640" as="sourcePoint" />
            <mxPoint x="260" y="870" as="targetPoint" />
          </mxGeometry>
        </mxCell>
        <mxCell id="tk5sPLedH6yxBTcmL2M--74" value="Authentification&amp;nbsp;" style="ellipse;whiteSpace=wrap;html=1;" vertex="1" parent="1">
          <mxGeometry x="890" y="640" width="120" height="80" as="geometry" />
        </mxCell>
        <mxCell id="tk5sPLedH6yxBTcmL2M--76" value="" style="endArrow=classic;dashed=1;html=1;rounded=0;entryX=0;entryY=0.5;entryDx=0;entryDy=0;exitX=1;exitY=0.5;exitDx=0;exitDy=0;endFill=1;startArrow=none;" edge="1" parent="1" source="tk5sPLedH6yxBTcmL2M--77" target="tk5sPLedH6yxBTcmL2M--74">
          <mxGeometry width="50" height="50" relative="1" as="geometry">
            <mxPoint x="710" y="590" as="sourcePoint" />
            <mxPoint x="760" y="540" as="targetPoint" />
            <Array as="points">
              <mxPoint x="680" y="625" />
            </Array>
          </mxGeometry>
        </mxCell>
        <mxCell id="tk5sPLedH6yxBTcmL2M--78" value="" style="endArrow=classic;dashed=1;html=1;rounded=0;entryX=0;entryY=0.5;entryDx=0;entryDy=0;exitX=1;exitY=0.5;exitDx=0;exitDy=0;endFill=1;" edge="1" parent="1" source="tk5sPLedH6yxBTcmL2M--9" target="tk5sPLedH6yxBTcmL2M--74">
          <mxGeometry width="50" height="50" relative="1" as="geometry">
            <mxPoint x="390" y="635" as="sourcePoint" />
            <mxPoint x="850" y="700" as="targetPoint" />
            <Array as="points">
              <mxPoint x="500" y="720" />
              <mxPoint x="680" y="720" />
            </Array>
          </mxGeometry>
        </mxCell>
        <mxCell id="tk5sPLedH6yxBTcmL2M--79" value="&amp;lt;&amp;lt;include&amp;gt;&amp;gt;" style="text;html=1;align=center;verticalAlign=middle;resizable=0;points=[];autosize=1;strokeColor=none;fillColor=none;" vertex="1" parent="1">
          <mxGeometry x="627" y="695" width="80" height="20" as="geometry" />
        </mxCell>
        <mxCell id="tk5sPLedH6yxBTcmL2M--81" value="" style="endArrow=classic;dashed=1;html=1;rounded=0;entryX=0;entryY=0.5;entryDx=0;entryDy=0;exitX=1;exitY=0.5;exitDx=0;exitDy=0;endFill=1;startArrow=none;" edge="1" parent="1" source="tk5sPLedH6yxBTcmL2M--82" target="tk5sPLedH6yxBTcmL2M--74">
          <mxGeometry width="50" height="50" relative="1" as="geometry">
            <mxPoint x="430" y="940" as="sourcePoint" />
            <mxPoint x="890" y="1005" as="targetPoint" />
            <Array as="points">
              <mxPoint x="680" y="940" />
            </Array>
          </mxGeometry>
        </mxCell>
        <mxCell id="tk5sPLedH6yxBTcmL2M--82" value="&amp;lt;&amp;lt;include&amp;gt;&amp;gt;" style="text;html=1;align=center;verticalAlign=middle;resizable=0;points=[];autosize=1;strokeColor=none;fillColor=none;" vertex="1" parent="1">
          <mxGeometry x="580" y="930" width="80" height="20" as="geometry" />
        </mxCell>
        <mxCell id="tk5sPLedH6yxBTcmL2M--85" value="" style="endArrow=none;dashed=1;html=1;rounded=0;entryX=0;entryY=0.5;entryDx=0;entryDy=0;exitX=1;exitY=0.5;exitDx=0;exitDy=0;endFill=1;" edge="1" parent="1" source="tk5sPLedH6yxBTcmL2M--71" target="tk5sPLedH6yxBTcmL2M--82">
          <mxGeometry width="50" height="50" relative="1" as="geometry">
            <mxPoint x="380" y="940" as="sourcePoint" />
            <mxPoint x="840" y="690" as="targetPoint" />
            <Array as="points" />
          </mxGeometry>
        </mxCell>
        <mxCell id="tk5sPLedH6yxBTcmL2M--77" value="&amp;lt;&amp;lt;include&amp;gt;&amp;gt;" style="text;html=1;align=center;verticalAlign=middle;resizable=0;points=[];autosize=1;strokeColor=none;fillColor=none;" vertex="1" parent="1">
          <mxGeometry x="580" y="615" width="80" height="20" as="geometry" />
        </mxCell>
        <mxCell id="tk5sPLedH6yxBTcmL2M--88" value="" style="endArrow=none;dashed=1;html=1;rounded=0;entryX=0;entryY=0.5;entryDx=0;entryDy=0;exitX=1;exitY=0.5;exitDx=0;exitDy=0;endFill=1;" edge="1" parent="1" source="tk5sPLedH6yxBTcmL2M--8" target="tk5sPLedH6yxBTcmL2M--77">
          <mxGeometry width="50" height="50" relative="1" as="geometry">
            <mxPoint x="380" y="625" as="sourcePoint" />
            <mxPoint x="840" y="690" as="targetPoint" />
            <Array as="points" />
          </mxGeometry>
        </mxCell>
        <mxCell id="tk5sPLedH6yxBTcmL2M--89" value="Supprimer une association" style="ellipse;whiteSpace=wrap;html=1;" vertex="1" parent="1">
          <mxGeometry x="260" y="1080" width="120" height="80" as="geometry" />
        </mxCell>
        <mxCell id="tk5sPLedH6yxBTcmL2M--90" value="Valider une association" style="ellipse;whiteSpace=wrap;html=1;" vertex="1" parent="1">
          <mxGeometry x="260" y="1200" width="120" height="80" as="geometry" />
        </mxCell>
        <mxCell id="tk5sPLedH6yxBTcmL2M--91" value="" style="endArrow=none;html=1;rounded=0;entryX=0;entryY=0.5;entryDx=0;entryDy=0;" edge="1" parent="1" target="tk5sPLedH6yxBTcmL2M--89">
          <mxGeometry width="50" height="50" relative="1" as="geometry">
            <mxPoint x="120" y="1160" as="sourcePoint" />
            <mxPoint x="270" y="1210" as="targetPoint" />
          </mxGeometry>
        </mxCell>
        <mxCell id="tk5sPLedH6yxBTcmL2M--93" value="" style="endArrow=none;html=1;rounded=0;entryX=0;entryY=0.5;entryDx=0;entryDy=0;" edge="1" parent="1" target="tk5sPLedH6yxBTcmL2M--90">
          <mxGeometry width="50" height="50" relative="1" as="geometry">
            <mxPoint x="120" y="1160" as="sourcePoint" />
            <mxPoint x="270" y="1130" as="targetPoint" />
          </mxGeometry>
        </mxCell>
        <mxCell id="tk5sPLedH6yxBTcmL2M--94" value="" style="endArrow=classic;dashed=1;html=1;rounded=0;entryX=0;entryY=0.5;entryDx=0;entryDy=0;exitX=1;exitY=0.5;exitDx=0;exitDy=0;endFill=1;startArrow=none;" edge="1" parent="1" source="tk5sPLedH6yxBTcmL2M--89" target="tk5sPLedH6yxBTcmL2M--74">
          <mxGeometry width="50" height="50" relative="1" as="geometry">
            <mxPoint x="670" y="950" as="sourcePoint" />
            <mxPoint x="850" y="700" as="targetPoint" />
            <Array as="points">
              <mxPoint x="690" y="950" />
            </Array>
          </mxGeometry>
        </mxCell>
        <mxCell id="tk5sPLedH6yxBTcmL2M--95" value="" style="endArrow=classic;dashed=1;html=1;rounded=0;exitX=1;exitY=0.5;exitDx=0;exitDy=0;endFill=1;startArrow=none;entryX=0;entryY=0.5;entryDx=0;entryDy=0;" edge="1" parent="1" source="tk5sPLedH6yxBTcmL2M--90" target="tk5sPLedH6yxBTcmL2M--74">
          <mxGeometry width="50" height="50" relative="1" as="geometry">
            <mxPoint x="390" y="1130" as="sourcePoint" />
            <mxPoint x="930" y="770" as="targetPoint" />
            <Array as="points">
              <mxPoint x="670" y="1020" />
            </Array>
          </mxGeometry>
        </mxCell>
        <mxCell id="tk5sPLedH6yxBTcmL2M--96" value="&amp;lt;&amp;lt;include&amp;gt;&amp;gt;" style="text;html=1;align=center;verticalAlign=middle;resizable=0;points=[];autosize=1;strokeColor=none;fillColor=none;" vertex="1" parent="1">
          <mxGeometry x="523" y="1000" width="80" height="20" as="geometry" />
        </mxCell>
        <mxCell id="tk5sPLedH6yxBTcmL2M--100" value="&amp;lt;&amp;lt;include&amp;gt;&amp;gt;" style="text;html=1;align=center;verticalAlign=middle;resizable=0;points=[];autosize=1;strokeColor=none;fillColor=none;" vertex="1" parent="1">
          <mxGeometry x="637" y="1030" width="80" height="20" as="geometry" />
        </mxCell>
      </root>
    </mxGraphModel>
  </diagram>
</mxfile>
